<?xml version="1.0" encoding="UTF-8"?>
<svg id="Layer_2" data-name="Layer 2" xmlns="http://www.w3.org/2000/svg" viewBox="0 0 590.82 108">
  <defs>
    <style>
      .cls-1 {
        fill: #fff;
      }
    </style>
  </defs>
  <g id="Layer_1-2" data-name="Layer 1">
    <g>
      <path class="cls-1" d="M78.57,105.67c.03.21-.38.78-.38.78h-14.44s-2.82.38-3.68.05c-2.31-.86-5.85-4.64-7.41-6.57-2.39-2.95-9.15-12.18-9.15-12.18l-19.7-24.85-4.24,4.13v2.52s-.27,4.54-.3,6.06c0,4.62-3.97,17.98-3.97,17.98,0,0-2.98-13.52-3.7-18.06-.24-1.48-.4-5.98-.4-5.98l-.19-32.93s.11-4.67-.59-5.93c-.48-.86-2.09-2.17-3.03-2.52-1.69-.59-5.69.35-7.14-.7-.16-.13-.27-.56-.27-.78s.27-.78.27-.78l6.44.13,4.96-2.79S11.38.93,12.02.31c.4-.4,6.55-.43,6.98,0,.67.67.32,22.97.32,22.97l5.15,2.79,6.06-.13s.38.56.38.78-.21.67-.38.78c-1.53.91-5.37.19-7.03.78-.97.35-2.6,1.74-3.09,2.63-.7,1.26-.56,5.74-.56,5.74l-.27,27.18,27.56-27.43s4.86-4.51,4.24-6.31c-.64-1.91-6.04-1.31-7.59-2.58-.16-.13-.24-.56-.27-.78s.27-.78.27-.78l5.53.13s7.06.24,9.39.27c2.23,0,8.88-.27,8.88-.27l4.78-.13s.38.56.38.78-.21.64-.38.78c-2.39,1.58-8.45,1.53-11.22,2.31-3.19.91-11.08,7.35-11.08,7.35l-20.34,19.97,18.54,23.7s10.33,13.36,14.36,17.25c1.74,1.69,5.39,5.04,7.67,5.93,1.85.72,6.15-.08,7.86.91.19.11.35.56.38.78l.03-.05Z"/>
      <path class="cls-1" d="M141.04,86.99c.27,0,.48.05.7.13.21.08.32.21.32.38-.78,5.42-1.15,11.08-1.15,17.01,0,.7-.16,1.18-.46,1.48s-.83.46-1.61.46h-53.96c-.16,0-.27-.27-.27-.78s.08-.78.27-.78c3.27,0,5.64-.21,7.14-.64s2.52-1.26,3.09-2.52c.56-1.23.83-3.17.83-5.74v-59.63c0-2.58-.27-4.45-.83-5.66-.56-1.21-1.58-2.04-3.09-2.52s-3.89-.7-7.14-.7c-.16,0-.27-.27-.27-.78s.08-.78.27-.78h51.79c.78,0,1.15.38,1.15,1.15l.27,15.83c0,.27-.21.4-.64.46s-.7-.05-.78-.32c-.27-4.56-1.64-8.1-4.13-10.63-2.5-2.52-5.8-3.81-9.93-3.81h-7.86c-3.01,0-5.21.24-6.63.7-1.42.48-2.42,1.29-2.95,2.44-.56,1.15-.83,2.9-.83,5.21v26.14h15.73c4.13,0,7.06-.7,8.83-2.07s2.63-3.7,2.63-6.95c0-.16.27-.27.78-.27s.78.08.78.27l-.13,10.44c0,2.5.05,4.37.13,5.66l.13,6.17c0,.16-.27.27-.78.27s-.78-.08-.78-.27c0-3.78-.91-6.49-2.76-8.1-1.85-1.64-4.91-2.44-9.2-2.44h-15.32v29.63c0,2.42.27,4.16.78,5.29.51,1.13,1.45,1.88,2.84,2.31s3.52.64,6.44.64h10.3c4.13,0,7.57-1.45,10.3-4.37,2.74-2.92,4.59-6.95,5.53-12.1,0-.16.16-.27.51-.27l-.03.08Z"/>
      <path class="cls-1" d="M235.07,26.69c0,.51-.13.78-.38.78-2.92,0-5.45.78-7.59,2.31s-3.94,4.16-5.42,7.86l-27.43,68.64c-.08.35-.56.51-1.42.51-.7,0-1.15-.16-1.42-.51l-32.07-69.69c-1.45-3.35-3.01-5.72-4.64-7.08s-3.73-2.07-6.31-2.07c-.27,0-.38-.27-.38-.78s.13-.78.38-.78l4.88.13c2.42.16,4.35.27,5.8.27,3.43,0,7.14-.08,11.08-.27l5.29-.13c.27,0,.38.27.38.78s-.13.78-.38.78c-5.34,0-8,1.5-8,4.51,0,1.02.38,2.42,1.15,4.13l26.92,58.98,23.19-58.1c.67-1.8,1.02-3.22,1.02-4.24,0-1.8-.81-3.14-2.44-4-1.64-.86-4.16-1.29-7.59-1.29-.27,0-.38-.27-.38-.78s.13-.78.38-.78l5.53.13c2.92.16,5.58.27,8,.27,1.8,0,3.81-.08,6.06-.27l5.42-.13c.27,0,.38.27.38.78v.03Z"/>
      <path class="cls-1" d="M250.1,97.21c-2.68-2.5-4.96-5.39-6.82-8.56-3.94-6.79-5.9-14.28-5.9-22.41,0-8.83,2.23-16.42,6.71-22.73,4.48-6.31,10.2-11.06,17.2-14.22,7-3.17,14.14-4.78,21.44-4.78,8.16,0,15.32,1.91,21.52,5.74,6.17,3.81,10.92,8.86,14.22,15.13,3.3,6.28,4.96,12.93,4.96,19.97,0,7.81-2.07,14.97-6.17,21.52-4.13,6.52-9.63,11.67-16.56,15.46-6.92,3.78-14.41,5.66-22.49,5.66-11.06,0-20.45-3.6-28.12-10.76v-.03ZM298.51,101.02c4.67-2.84,8.37-7,11.08-12.51s4.05-12.02,4.05-19.59c0-8.08-1.5-15.24-4.51-21.52-3.01-6.25-7.25-11.16-12.69-14.68-5.45-3.52-11.83-5.29-19.13-5.29-9.45,0-16.83,3.06-22.17,9.15-5.31,6.09-8,14.46-8,25.12,0,8.08,1.5,15.43,4.51,22.09,3.01,6.66,7.22,11.89,12.61,15.73,5.42,3.81,11.54,5.74,18.44,5.74,5.85,0,11.08-1.42,15.78-4.24h.03Z"/>
      <path class="cls-1" d="M417.98,105.67c0,.51-.08.78-.27.78h-16.61c-2.15,0-6.17-3.57-12.1-10.68-5.93-7.14-12.96-16.91-21.12-29.36-2.31.51-4.72.78-7.22.78-.51,0-2.44-.13-5.8-.38v29.25c0,2.66.27,4.59.78,5.8.51,1.21,1.53,2.01,3.03,2.44s3.89.64,7.14.64c.27,0,.38.27.38.78s-.13.78-.38.78c-2.66,0-4.78-.05-6.31-.13l-8.88-.13-8.75.13c-1.56.08-3.73.13-6.57.13-.19,0-.27-.27-.27-.78s.08-.78.27-.78c3.25,0,5.66-.21,7.22-.64,1.56-.43,2.6-1.26,3.17-2.52s.83-3.17.83-5.74v-59.68c0-2.58-.27-4.45-.78-5.66-.51-1.21-1.53-2.04-3.03-2.52-1.5-.48-3.89-.7-7.14-.7-.27,0-.38-.27-.38-.78s.13-.78.38-.78l6.31.13c3.6.16,6.52.27,8.75.27,1.88,0,3.65-.05,5.29-.13s3.01-.16,4.13-.27c3.17-.27,6.06-.38,8.64-.38,6.79,0,12.02,1.56,15.73,4.64,3.97,3.33,5.8,7.84,5.5,13.52-.21,4.24-1.74,8.35-4.27,11.73-2.68,3.57-6.17,6.41-10.52,8.51,7.22,10.39,13.28,18.52,18.22,24.42,4.94,5.88,9.31,10.12,13.15,12.69,3.84,2.58,7.57,3.86,11.27,3.86.16,0,.27.27.27.78l-.05-.03ZM362.46,64.18c6.71,0,11.49-1.45,14.36-4.37s4.32-7.43,4.32-13.52c0-6.71-1.48-11.51-4.45-14.44-2.95-2.92-7.27-4.37-12.93-4.37-3.35,0-5.66.59-6.95,1.8s-1.93,3.65-1.93,7.35v27.05c2.15.35,4.67.51,7.59.51Z"/>
      <path class="cls-1" d="M499.37,105.67c0,.51-.13.78-.38.78h-14.44c-.7,0-1.91,0-3.68.05-1.77.05-4.24-2.15-7.41-6.57-3.17-4.43-6.23-8.48-9.15-12.18l-19.7-24.85-4.24,4.13v28.98c0,2.58.27,4.48.78,5.74.51,1.23,1.53,2.09,3.03,2.52s3.89.64,7.14.64c.27,0,.38.27.38.78s-.13.78-.38.78c-2.58,0-4.64-.05-6.17-.13l-9.02-.13-8.75.13c-1.56.08-3.7.13-6.44.13-.16,0-.27-.27-.27-.78s.08-.78.27-.78c3.27,0,5.64-.21,7.14-.64,1.5-.43,2.52-1.26,3.09-2.52.56-1.23.83-3.17.83-5.74v-59.65c0-2.58-.27-4.45-.78-5.66-.51-1.21-1.53-2.04-3.03-2.52s-3.89-.7-7.14-.7c-.16,0-.27-.27-.27-.78s.08-.78.27-.78l6.44.13c3.6.16,6.49.27,8.64.27,2.5,0,5.53-.08,9.15-.27l6.06-.13c.27,0,.38.27.38.78s-.13.78-.38.78c-3.17,0-5.53.27-7.03.78s-2.52,1.4-3.09,2.63c-.56,1.23-.83,3.17-.83,5.74v27.18l27.56-27.43c2.84-2.84,4.24-4.94,4.24-6.31,0-1.72-2.52-2.58-7.59-2.58-.16,0-.27-.27-.27-.78s.08-.78.27-.78l5.53.13c3.43.16,6.57.27,9.39.27s5.8-.08,8.88-.27l4.78-.13c.27,0,.38.27.38.78s-.13.78-.38.78c-3.52,0-7.27.78-11.22,2.31-3.94,1.53-7.65,4-11.08,7.35l-20.34,19.97,18.54,23.7c6.28,8.16,11.06,13.9,14.36,17.25,3.3,3.35,5.85,5.31,7.67,5.93s4.43.91,7.86.91c.27,0,.38.27.38.78v-.03Z"/>
      <path class="cls-1" d="M590.71,105.67c0,.51-.16.78-.51.78-1.64,0-4.16-.08-7.59-.27-3.43-.16-5.93-.27-7.46-.27-1.88,0-4.29.08-7.22.27-2.74.16-4.86.27-6.31.27-.35,0-.51-.27-.51-.78s.16-.78.51-.78c3.17,0,5.5-.3,6.95-.91,1.45-.59,2.2-1.64,2.2-3.09,0-1.21-.56-3.06-1.66-5.53l-11.46-24.34h-30.65l-8.1,19.05c-1.21,2.92-1.8,5.29-1.8,7.08,0,2.66,1.05,4.62,3.17,5.85,2.09,1.23,5.26,1.88,9.47,1.88.43,0,.64.27.64.78s-.21.78-.64.78c-1.56,0-3.78-.08-6.71-.27-3.27-.16-6.09-.27-8.51-.27-2.23,0-4.8.08-7.73.27-2.58.16-4.72.27-6.44.27-.43,0-.64-.27-.64-.78s.21-.78.64-.78c2.42,0,4.45-.46,6.12-1.34s3.27-2.5,4.78-4.78c1.5-2.28,3.17-5.55,4.96-9.85l27.18-64.14c.16-.27.48-.38.91-.38s.7.13.78.38l30.4,64.03c2.92,6.36,5.42,10.63,7.46,12.83,2.07,2.2,4.51,3.27,7.35,3.27.35,0,.51.27.51.78l-.11-.03ZM527.97,68.42h28.47l-15.08-31.83-13.39,31.83Z"/>
    </g>
  </g>
</svg>