<?xml version="1.0" encoding="UTF-8"?>
<svg id="Layer_1" xmlns="http://www.w3.org/2000/svg" xmlns:xlink="http://www.w3.org/1999/xlink" version="1.1" viewBox="0 0 427 335">
  <!-- Generator: Adobe Illustrator 29.1.0, SVG Export Plug-In . SVG Version: 2.1.0 Build 142)  -->
  <defs>
    <style>
      .st0 {
        fill: url(#radial-gradient);
      }

      .st0, .st1, .st2 {
        stroke-width: .5px;
      }

      .st0, .st1, .st2, .st3 {
        stroke: #fff;
      }

      .st1 {
        fill: url(#radial-gradient2);
      }

      .st2 {
        fill: url(#radial-gradient3);
      }

      .st3 {
        fill: url(#radial-gradient1);
        stroke-width: .3px;
      }
    </style>
    <radialGradient id="radial-gradient" cx="63.4" cy="302" fx="63.4" fy="302" r="49.9" gradientUnits="userSpaceOnUse">
      <stop offset="0" stop-color="#fff"/>
      <stop offset="1" stop-color="#fff"/>
    </radialGradient>
    <radialGradient id="radial-gradient1" cx="80.3" cy="18" fx="80.3" fy="18" r="17.8" xlink:href="#radial-gradient"/>
    <radialGradient id="radial-gradient2" cx="369.8" cy="276.5" fx="369.8" fy="276.5" r="43.3" xlink:href="#radial-gradient"/>
    <radialGradient id="radial-gradient3" cx="330.7" cy="25.2" fx="330.7" fy="25.2" r="35.7" xlink:href="#radial-gradient"/>
  </defs>
  <path class="st0" d="M115.3,304.5l-29.7,25.1M55.9,308.3l22.8,20.3M30.5,276.9l17.5,21.7M6.1,274.8l14.1-2.5M52.1,299c2.4.2,4.2,2.4,4,4.9-.2,2.5-2.3,4.4-4.7,4.2-2.4-.2-4.2-2.4-4-4.9.2-2.5,2.3-4.4,4.7-4.2ZM27.4,269.4c1.9.2,3.3,1.9,3.2,3.9s-1.8,3.5-3.7,3.4c-1.9-.2-3.3-1.9-3.2-3.9.1-2,1.8-3.5,3.7-3.4ZM2.8,272.9c1,0,1.7,1,1.6,2,0,1-.9,1.8-1.9,1.7-1,0-1.7-1-1.6-2,0-1,.9-1.8,1.9-1.7ZM121.2,293.7c2.9.2,5,2.9,4.8,5.9-.2,3-2.7,5.3-5.6,5s-5-2.9-4.8-5.9c.2-3,2.7-5.3,5.6-5ZM82.9,329.2c1.4.1,2.5,1.4,2.4,3-.1,1.5-1.4,2.6-2.8,2.5-1.4-.1-2.5-1.4-2.4-3s1.4-2.6,2.8-2.5Z"/>
  <path class="st3" d="M73.7,2.8l24.2,28.9M81.1,34.3l14.3.2M66.4,31.1l11.5,3.3M71.5,4.1c-.6-1.1-.2-2.6.8-3.2,1.1-.7,2.4-.3,3.1.9.6,1.1.2,2.6-.8,3.2-1.1.7-2.4.3-3.1-.9ZM78.7,34.9c-.2-.4,0-1,.3-1.2.4-.2.9,0,1.1.3.2.4,0,1-.3,1.2-.4.2-.9,0-1.1-.3ZM62.3,30.9c-.5-.8-.2-1.9.6-2.4.8-.5,1.8-.2,2.3.7.5.8.2,1.9-.6,2.4-.8.5-1.8.2-2.3-.7ZM96,34.7c-.4-.7-.2-1.6.5-2,.7-.4,1.5-.2,1.9.5.4.7.2,1.6-.5,2-.7.4-1.5.2-1.9-.5Z"/>
  <path class="st1" d="M321.4,295.8l51.2,2.3M404.3,258.3l-27.2,34.5M421.5,274.3l-14.2-16.1M336.8,274.4l-15.2,15M347.5,271.9c0,2.5-2,4.6-4.4,4.6s-4.4-2.1-4.4-4.6,1.9-4.6,4.4-4.6,4.4,2.1,4.4,4.6ZM407.4,256.4c0,1-.7,1.7-1.6,1.7s-1.6-.8-1.6-1.7.7-1.7,1.6-1.7,1.6.8,1.6,1.7ZM319.2,292.6c0,1.9-1.5,3.5-3.3,3.5s-3.3-1.5-3.3-3.5,1.5-3.5,3.3-3.5,3.3,1.5,3.3,3.5ZM427,276.5c0,1.9-1.5,3.5-3.3,3.5s-3.3-1.5-3.3-3.5,1.5-3.5,3.3-3.5,3.3,1.5,3.3,3.5ZM378,295.5c0,1.6-1.2,2.9-2.7,2.9s-2.7-1.3-2.7-2.9,1.2-2.9,2.7-2.9,2.7,1.3,2.7,2.9Z"/>
  <path class="st2" d="M356.4,22.1l13.1,9.2M367,46.7l-51.2-19.6M354.2,22.2l13.1,21.9M295.4,9.5l14.2,12.7M295.3,5.1c0,2.5-1.9,4.6-4.4,4.6s-4.4-2.1-4.4-4.6,1.9-4.6,4.4-4.6,4.4,2.1,4.4,4.6ZM355.2,20.6c0,1-.7,1.7-1.6,1.7s-1.6-.8-1.6-1.7.7-1.7,1.6-1.7,1.6.8,1.6,1.7ZM316,24.6c0,1.9-1.5,3.5-3.3,3.5s-3.3-1.5-3.3-3.5,1.5-3.5,3.3-3.5,3.3,1.5,3.3,3.5ZM372.6,46.5c0,1.9-1.5,3.5-3.3,3.5s-3.3-1.5-3.3-3.5,1.5-3.5,3.3-3.5,3.3,1.5,3.3,3.5ZM374.7,28.6c0,1.6-1.2,2.9-2.7,2.9s-2.7-1.3-2.7-2.9,1.2-2.9,2.7-2.9,2.7,1.3,2.7,2.9Z"/>
</svg>