<svg width="83" height="93" viewBox="0 0 83 93" fill="none" xmlns="http://www.w3.org/2000/svg">
<path d="M35 22.0287C21.3811 25.7307 21.753 28.9106 17.5232 45C13.1076 28.1038 13.8513 25.0188 0 21.2219C14.3625 17.2826 14.3161 17.1876 18.3134 2C22.2178 16.8079 20.6839 18.0419 34.9535 21.9812L35 22.0287Z" fill="url(#paint0_linear_466_342)"/>
<path d="M30.6518 28.1161C30.6518 28.1913 30.5762 28.7623 30.4854 29.0328C30.0164 30.2651 31.9529 29.9495 32.6943 30.776C33.95 32.1886 33.8744 34.5929 32.8304 35.4345C32.1799 35.9604 30.0012 36.3361 29.3658 37.3129C28.4883 38.6653 29.2145 42.0916 29.4868 43.6093C29.7289 44.9467 25.7347 37.9891 27.051 36.5465C30.0466 33.2705 27.9739 28.2965 28.8968 25.0355C29.9407 21.3388 31.1057 15.7637 36.9154 18.3935C38.6855 19.1899 44.3439 21.5041 44.6465 27.1093C45.1307 35.9604 49.2913 33.3757 46.4772 39.8825C45.3727 42.4372 46.6739 49.7254 50.3503 47.2459C44.1926 51.1831 39.4269 40.7992 38.156 38.8607C36.8246 36.817 35.9168 32.7596 37.5508 29.5738C38.9881 26.7637 33.9954 25.9823 33.9954 21.7896C33.9954 21.7896 32.9666 22.4058 32.6791 22.6462C31.8319 23.3375 31.9832 24.3894 31.6806 25.0205C31.2267 26.0123 31.2116 25.6967 30.6518 26.0875C30.4551 26.2377 30.44 26.5383 30.5459 26.8839" fill="#FF69A0"/>
<path d="M30.0316 39.9126C32.18 38.7254 32.9365 40.8593 32.9365 40.8593C33.1937 40.8894 32.9062 39.1762 35.9624 39.3415C39.2303 39.5219 37.2937 45.1421 36.3255 47.0205C32.4675 54.0082 30.0014 51.123 28.6095 52.9262C38.0048 52.0096 37.7628 52.4754 41.4846 41.3702C39.5329 51.4085 39.4119 50.612 49.9117 59.5232C52.7258 64.0164 41.0912 66.6161 47.4305 61.4317C70.0641 47.291 71.0777 18.5437 54.1328 -0.0150146C95.9656 15.9891 89.339 68.8702 53.5276 79.9003C51.5457 80.5164 59.0498 92.0273 57.4007 92.0273C43.0732 92.0273 45.388 78.112 26.8091 83.7924C20.9388 85.5956 19.8949 73.1079 16.5513 70.5683C11.7099 66.8716 5.4917 49.2896 5.70351 49.3497C6.20278 49.485 21.2868 64.1667 22.6182 59.5082C26.3854 46.179 37.324 57.9604 30.2737 44.9618C29.3054 43.6394 28.3825 40.8142 30.0467 39.8976L30.0316 39.9126Z" fill="#FF69A0"/>
<defs>
<linearGradient id="paint0_linear_466_342" x1="17.5" y1="2" x2="17.5" y2="45" gradientUnits="userSpaceOnUse">
<stop stop-color="#FF87D5"/>
<stop offset="1" stop-color="#FF69A0" stop-opacity="0.75"/>
</linearGradient>
</defs>
</svg>
