<?xml version="1.0" encoding="UTF-8"?>
<svg id="Layer_2" xmlns="http://www.w3.org/2000/svg" viewBox="0 0 59.33 65.4">
  <defs>
    <style>
      .cls-1 {
        fill: #fff;
      }

      .cls-2 {
        fill: #e8a600;
      }
    </style>
  </defs>
  <g id="invert_x5F_logo">
    <g>
      <path class="cls-2" d="M26.37,14.77c-10.27,2.74-9.98,5.07-13.17,16.97-3.33-12.46-2.77-14.75-13.2-17.55,10.82-2.9,10.79-2.97,13.81-14.19,2.94,10.93,1.79,11.84,12.56,14.77Z"/>
      <path class="cls-1" d="M24.73,22.86c0,.05-.05.43-.11.61-.31.82.97.61,1.46,1.16.83.94.78,2.54.09,3.1-.43.35-1.87.6-2.29,1.25-.58.9-.1,3.18.08,4.19.16.89-2.48-3.74-1.61-4.7,1.98-2.18.61-5.49,1.22-7.66.69-2.46,1.46-6.17,5.3-4.42,1.17.53,4.91,2.07,5.11,5.8.32,5.89,3.07,4.17,1.21,8.5-.73,1.7.13,6.55,2.56,4.9-4.07,2.62-7.22-4.29-8.06-5.58-.88-1.36-1.48-4.06-.4-6.18.95-1.87-2.35-2.39-2.35-5.18,0,0-.68.41-.87.57-.56.46-.46,1.16-.66,1.58-.3.66-.31.45-.68.71-.13.1-.14.3-.07.53"/>
      <path class="cls-1" d="M24.32,30.71c1.42-.79,1.92.63,1.92.63.17.02-.02-1.12,2-1.01,2.16.12.88,3.86.24,5.11-2.55,4.65-4.18,2.73-5.1,3.93,6.21-.61,6.05-.3,8.51-7.69-1.29,6.68-1.37,6.15,5.57,12.08,1.86,2.99-5.83,4.72-1.64,1.27,14.96-9.41,15.63-28.54,4.43-40.89,27.65,10.65,23.27,45.84-.4,53.18-1.31.41,3.65,8.07,2.56,8.07-9.47,0-7.94-9.26-20.22-5.48-3.88,1.2-4.57-7.11-6.78-8.8-3.2-2.46-7.31-14.16-7.17-14.12.33.09,10.3,9.86,11.18,6.76,2.49-8.87,9.72-1.03,5.06-9.68-.64-.88-1.25-2.76-.15-3.37Z"/>
    </g>
  </g>
</svg>