<?xml version="1.0" encoding="UTF-8"?>
<svg id="Layer_2" data-name="Layer 2" xmlns="http://www.w3.org/2000/svg" viewBox="0 0 787.76 144">
  <g id="Layer_1-2" data-name="Layer 1">
    <g>
      <path d="M104.76,140.89c.04.29-.5,1.04-.5,1.04h-19.25s-3.76.5-4.9.07c-3.08-1.14-7.8-6.19-9.88-8.77-3.18-3.94-12.2-16.24-12.2-16.24l-26.26-33.13-5.65,5.51v3.36s-.36,6.05-.39,8.09c0,6.15-5.3,23.97-5.3,23.97,0,0-3.97-18.03-4.94-24.08-.32-1.97-.54-7.98-.54-7.98l-.25-43.9s.14-6.23-.79-7.91c-.64-1.14-2.79-2.9-4.04-3.36-2.25-.79-7.59.47-9.52-.93-.21-.18-.36-.75-.36-1.04s.36-1.04.36-1.04l8.59.18,6.62-3.72s-.39-29.77.47-30.59c.54-.54,8.73-.57,9.3,0,.89.89.43,30.63.43,30.63l6.87,3.72,8.09-.18s.5.75.5,1.04-.29.89-.5,1.04c-2.04,1.22-7.16.25-9.37,1.04-1.29.47-3.47,2.33-4.11,3.51-.93,1.68-.75,7.66-.75,7.66l-.36,36.24,36.75-36.57s6.48-6.01,5.65-8.41c-.86-2.54-8.05-1.75-10.13-3.43-.21-.18-.32-.75-.36-1.04s.36-1.04.36-1.04l7.37.18s9.41.32,12.52.36c2.97,0,11.84-.36,11.84-.36l6.37-.18s.5.75.5,1.04-.29.86-.5,1.04c-3.18,2.11-11.27,2.04-14.96,3.08-4.26,1.22-14.78,9.8-14.78,9.8l-27.12,26.62,24.72,31.59s13.78,17.82,19.14,23.01c2.33,2.25,7.19,6.73,10.23,7.91,2.47.97,8.19-.11,10.48,1.22.25.14.47.75.5,1.04l.04-.07Z"/>
      <path d="M188.06,115.98c.36,0,.64.07.93.18.29.11.43.29.43.5-1.04,7.23-1.54,14.78-1.54,22.68,0,.93-.21,1.57-.61,1.97s-1.11.61-2.15.61h-71.95c-.21,0-.36-.36-.36-1.04s.11-1.04.36-1.04c4.37,0,7.51-.29,9.52-.86,2-.57,3.36-1.68,4.11-3.36.75-1.65,1.11-4.22,1.11-7.66V48.47c0-3.43-.36-5.94-1.11-7.55-.75-1.61-2.11-2.72-4.11-3.36s-5.19-.93-9.52-.93c-.21,0-.36-.36-.36-1.04s.11-1.04.36-1.04h69.05c1.04,0,1.54.5,1.54,1.54l.36,21.11c0,.36-.29.54-.86.61s-.93-.07-1.04-.43c-.36-6.08-2.18-10.81-5.51-14.17s-7.73-5.08-13.24-5.08h-10.48c-4.01,0-6.94.32-8.84.93-1.9.64-3.22,1.72-3.94,3.26-.75,1.54-1.11,3.86-1.11,6.94v34.85h20.97c5.51,0,9.41-.93,11.77-2.76,2.36-1.82,3.51-4.94,3.51-9.27,0-.21.36-.36,1.04-.36s1.04.11,1.04.36l-.18,13.92c0,3.33.07,5.83.18,7.55l.18,8.23c0,.21-.36.36-1.04.36s-1.04-.11-1.04-.36c0-5.04-1.22-8.66-3.69-10.81-2.47-2.18-6.55-3.26-12.27-3.26h-20.43v39.5c0,3.22.36,5.55,1.04,7.05.68,1.5,1.93,2.5,3.79,3.08s4.69.86,8.59.86h13.74c5.51,0,10.09-1.93,13.74-5.83s6.12-9.27,7.37-16.14c0-.21.21-.36.68-.36l-.04.11Z"/>
      <path d="M313.43,35.59c0,.68-.18,1.04-.5,1.04-3.9,0-7.26,1.04-10.13,3.08s-5.26,5.55-7.23,10.48l-36.57,91.52c-.11.47-.75.68-1.9.68-.93,0-1.54-.21-1.9-.68l-42.76-92.92c-1.93-4.47-4.01-7.62-6.19-9.45s-4.97-2.76-8.41-2.76c-.36,0-.5-.36-.5-1.04s.18-1.04.5-1.04l6.51.18c3.22.21,5.8.36,7.73.36,4.58,0,9.52-.11,14.78-.36l7.05-.18c.36,0,.5.36.5,1.04s-.18,1.04-.5,1.04c-7.12,0-10.66,2-10.66,6.01,0,1.36.5,3.22,1.54,5.51l35.89,78.64,30.91-77.46c.89-2.4,1.36-4.29,1.36-5.65,0-2.4-1.07-4.19-3.26-5.33s-5.55-1.72-10.13-1.72c-.36,0-.5-.36-.5-1.04s.18-1.04.5-1.04l7.37.18c3.9.21,7.44.36,10.66.36,2.4,0,5.08-.11,8.09-.36l7.23-.18c.36,0,.5.36.5,1.04v.04Z"/>
      <path d="M333.47,129.62c-3.58-3.33-6.62-7.19-9.09-11.41-5.26-9.05-7.87-19.03-7.87-29.88,0-11.77,2.97-21.9,8.94-30.31,5.98-8.41,13.6-14.74,22.93-18.96,9.34-4.22,18.86-6.37,28.59-6.37,10.88,0,20.43,2.54,28.7,7.66,8.23,5.08,14.56,11.81,18.96,20.18s6.62,17.25,6.62,26.62c0,10.41-2.76,19.97-8.23,28.7-5.51,8.69-12.84,15.56-22.08,20.61-9.23,5.04-19.21,7.55-29.98,7.55-14.74,0-27.26-4.79-37.5-14.35v-.04ZM398.01,134.7c6.23-3.79,11.16-9.34,14.78-16.67,3.61-7.33,5.4-16.03,5.4-26.12,0-10.77-2-20.32-6.01-28.7-4.01-8.34-9.66-14.88-16.92-19.57-7.26-4.69-15.78-7.05-25.51-7.05-12.59,0-22.43,4.08-29.55,12.2-7.08,8.12-10.66,19.29-10.66,33.49,0,10.77,2,20.57,6.01,29.45,4.01,8.87,9.62,15.85,16.82,20.97,7.23,5.08,15.39,7.66,24.58,7.66,7.8,0,14.78-1.9,21.04-5.65h.04Z"/>
      <path d="M557.3,140.89c0,.68-.11,1.04-.36,1.04h-22.15c-2.86,0-8.23-4.76-16.14-14.24-7.91-9.52-17.28-22.54-28.16-39.14-3.08.68-6.3,1.04-9.62,1.04-.68,0-3.26-.18-7.73-.5v39c0,3.54.36,6.12,1.04,7.73.68,1.61,2.04,2.68,4.04,3.26s5.19.86,9.52.86c.36,0,.5.36.5,1.04s-.18,1.04-.5,1.04c-3.54,0-6.37-.07-8.41-.18l-11.84-.18-11.66.18c-2.08.11-4.97.18-8.77.18-.25,0-.36-.36-.36-1.04s.11-1.04.36-1.04c4.33,0,7.55-.29,9.62-.86,2.08-.57,3.47-1.68,4.22-3.36s1.11-4.22,1.11-7.66V48.47c0-3.43-.36-5.94-1.04-7.55-.68-1.61-2.04-2.72-4.04-3.36-2-.64-5.19-.93-9.52-.93-.36,0-.5-.36-.5-1.04s.18-1.04.5-1.04l8.41.18c4.79.21,8.69.36,11.66.36,2.5,0,4.87-.07,7.05-.18s4.01-.21,5.51-.36c4.22-.36,8.09-.5,11.52-.5,9.05,0,16.03,2.08,20.97,6.19,5.3,4.44,7.73,10.45,7.33,18.03-.29,5.65-2.33,11.13-5.69,15.64-3.58,4.76-8.23,8.55-14.03,11.34,9.62,13.85,17.71,24.69,24.29,32.56,6.58,7.84,12.42,13.49,17.53,16.92,5.12,3.43,10.09,5.15,15.03,5.15.21,0,.36.36.36,1.04l-.07-.04ZM483.28,85.57c8.94,0,15.31-1.93,19.14-5.83,3.83-3.9,5.76-9.91,5.76-18.03,0-8.94-1.97-15.35-5.94-19.25-3.94-3.9-9.7-5.83-17.25-5.83-4.47,0-7.55.79-9.27,2.4s-2.58,4.87-2.58,9.8v36.07c2.86.47,6.23.68,10.13.68Z"/>
      <path d="M665.82,140.89c0,.68-.18,1.04-.5,1.04h-19.25c-.93,0-2.54,0-4.9.07-2.36.07-5.65-2.86-9.88-8.77-4.22-5.9-8.3-11.31-12.2-16.24l-26.26-33.13-5.65,5.51v38.64c0,3.43.36,5.98,1.04,7.66.68,1.65,2.04,2.79,4.04,3.36,2,.57,5.19.86,9.52.86.36,0,.5.36.5,1.04s-.18,1.04-.5,1.04c-3.43,0-6.19-.07-8.23-.18l-12.02-.18-11.66.18c-2.08.11-4.94.18-8.59.18-.21,0-.36-.36-.36-1.04s.11-1.04.36-1.04c4.37,0,7.51-.29,9.52-.86,2-.57,3.36-1.68,4.11-3.36.75-1.65,1.11-4.22,1.11-7.66V48.47c0-3.43-.36-5.94-1.04-7.55-.68-1.61-2.04-2.72-4.04-3.36s-5.19-.93-9.52-.93c-.21,0-.36-.36-.36-1.04s.11-1.04.36-1.04l8.59.18c4.79.21,8.66.36,11.52.36,3.33,0,7.37-.11,12.2-.36l8.09-.18c.36,0,.5.36.5,1.04s-.18,1.04-.5,1.04c-4.22,0-7.37.36-9.37,1.04s-3.36,1.86-4.11,3.51c-.75,1.65-1.11,4.22-1.11,7.66v36.24l36.75-36.57c3.79-3.79,5.65-6.58,5.65-8.41,0-2.29-3.36-3.43-10.13-3.43-.21,0-.36-.36-.36-1.04s.11-1.04.36-1.04l7.37.18c4.58.21,8.77.36,12.52.36s7.73-.11,11.84-.36l6.37-.18c.36,0,.5.36.5,1.04s-.18,1.04-.5,1.04c-4.69,0-9.7,1.04-14.96,3.08-5.26,2.04-10.2,5.33-14.78,9.8l-27.12,26.62,24.72,31.59c8.37,10.88,14.74,18.53,19.14,23.01,4.4,4.47,7.8,7.08,10.23,7.91,2.43.82,5.9,1.22,10.48,1.22.36,0,.5.36.5,1.04v-.04Z"/>
      <path d="M787.62,140.89c0,.68-.21,1.04-.68,1.04-2.18,0-5.55-.11-10.13-.36-4.58-.21-7.91-.36-9.95-.36-2.5,0-5.72.11-9.62.36-3.65.21-6.48.36-8.41.36-.47,0-.68-.36-.68-1.04s.21-1.04.68-1.04c4.22,0,7.33-.39,9.27-1.22,1.93-.79,2.93-2.18,2.93-4.11,0-1.61-.75-4.08-2.22-7.37l-15.28-32.45h-40.86l-10.81,25.4c-1.61,3.9-2.4,7.05-2.4,9.45,0,3.54,1.4,6.15,4.22,7.8,2.79,1.65,7.01,2.5,12.63,2.5.57,0,.86.36.86,1.04s-.29,1.04-.86,1.04c-2.08,0-5.04-.11-8.94-.36-4.37-.21-8.12-.36-11.34-.36-2.97,0-6.4.11-10.3.36-3.43.21-6.3.36-8.59.36-.57,0-.86-.36-.86-1.04s.29-1.04.86-1.04c3.22,0,5.94-.61,8.16-1.79,2.22-1.18,4.37-3.33,6.37-6.37,2-3.04,4.22-7.41,6.62-13.13l36.24-85.51c.21-.36.64-.5,1.22-.5s.93.18,1.04.5l40.54,85.37c3.9,8.48,7.23,14.17,9.95,17.1,2.76,2.93,6.01,4.37,9.8,4.37.47,0,.68.36.68,1.04l-.14-.04ZM703.97,91.22h37.96l-20.11-42.43-17.85,42.43Z"/>
    </g>
  </g>
</svg>